<svg xmlns="http://www.w3.org/2000/svg" viewBox="0 0 1200 760"><rect width="1200" height="760" rx="28" fill="#f4f1ec"/><text x="70" y="85" font-family="Arial" font-size="34" font-weight="700" fill="#1b1a18">AI Product Flow · Demo</text><text x="70" y="125" font-family="Arial" font-size="18" fill="#77716a">Synthetic placeholder — replace with your own public project visual.</text><rect x="70" y="220" width="210" height="200" rx="26" fill="#1d1c1a"/><text x="100" y="275" font-family="Arial" font-size="22" fill="#fff">USER QUERY</text><path d="M310 320h90" stroke="#8c867f" stroke-width="8" stroke-linecap="round"/><path d="m385 300 24 20-24 20" fill="none" stroke="#8c867f" stroke-width="8"/><rect x="430" y="180" width="320" height="280" rx="26" fill="#ddd6cc"/><text x="465" y="235" font-family="Arial" font-size="22" font-weight="700" fill="#24211f">MODEL RESPONSE</text><rect x="465" y="280" width="245" height="16" rx="8" fill="#aaa198"/><rect x="465" y="315" width="215" height="16" rx="8" fill="#aaa198"/><rect x="465" y="350" width="235" height="16" rx="8" fill="#aaa198"/><path d="M780 320h90" stroke="#8c867f" stroke-width="8" stroke-linecap="round"/><path d="m855 300 24 20-24 20" fill="none" stroke="#8c867f" stroke-width="8"/><rect x="900" y="220" width="230" height="200" rx="26" fill="#e5b868"/><text x="930" y="275" font-family="Arial" font-size="22" font-weight="700" fill="#332717">ACTION</text><rect x="930" y="315" width="165" height="44" rx="22" fill="#1d1c1a"/><text x="968" y="344" font-family="Arial" font-size="18" fill="#fff">CTA</text></svg>